# xmcd
#
# Track frame offsets: 
#        183
#        23180
#        49248
#        66583
#        83633
#        104790
#        119345
#        134360
#        149110
#        165010
#        183180
#
# Disc length: 2705 seconds
#
# Revision: 2
# Processed by: cddbd v1.4PL0 Copyright (c) Steve Scherf et al.
# Submitted via: ExactAudioCopy v0.90a11
#
DISCID=9e0a8f0b
DTITLE=Nitty Gritty Dirt Band, The - Twenty Years Of Dirt - The Best O
DTITLE=f
DYEAR=1900
DGENRE=
TTITLE0=Intro - Mr. Bojangles
TTITLE1=Ripplin' Waters
TTITLE2=American Dream
TTITLE3=Make A Little Magic
TTITLE4=Fire In The Sky
TTITLE5=Dance Little Jean
TTITLE6=Long Hard Road (The Sharecropper's Dream)
TTITLE7=High Horse
TTITLE8=Modern Day Romance
TTITLE9=Partners, Brothers And Friends
TTITLE10=Stand A Little Rain
EXTD=
EXTT0=
EXTT1=
EXTT2=
EXTT3=
EXTT4=
EXTT5=
EXTT6=
EXTT7=
EXTT8=
EXTT9=
EXTT10=
PLAYORDER=
